<?xml version="1.0" encoding="UTF-8"?>
<!DOCTYPE svg PUBLIC "-//W3C//DTD SVG 1.1//EN" "http://www.w3.org/Graphics/SVG/1.1/DTD/svg11.dtd">
<!-- Creator: CorelDRAW 2021 (64-Bit) -->
<svg xmlns="http://www.w3.org/2000/svg" xml:space="preserve" width="205.745mm" height="210mm" version="1.1" style="shape-rendering:geometricPrecision; text-rendering:geometricPrecision; image-rendering:optimizeQuality; fill-rule:evenodd; clip-rule:evenodd"
viewBox="0 0 20574.52 21000"
 xmlns:xlink="http://www.w3.org/1999/xlink"
 xmlns:xodm="http://www.corel.com/coreldraw/odm/2003">
 <defs>
  <style type="text/css">
   <![CDATA[
    .fil2 {fill:none}
    .fil0 {fill:#FF820A;fill-rule:nonzero}
    .fil1 {fill:white;fill-rule:nonzero}
   ]]>
  </style>
   <clipPath id="id0">
    <path d="M538.37 799.66l19481.36 0 0 19414.76 -19481.36 0.18 0 -19414.94z"/>
   </clipPath>
 </defs>
 <g id="Layer_x0020_1">
  <metadata id="CorelCorpID_0Corel-Layer"/>
  <g>
  </g>
  <g style="clip-path:url(#id0)">
   <g>
    <path class="fil0" d="M12717.79 1311.29l-1908.95 -511.63 -1609.01 6004.04 -1452.17 -5420.68 -1908.95 511.63 1569.21 5856.55 -3908.71 -3908.71 -1397.87 1397.87 4287.71 4286.8 -5339.05 -1430.34 -511.63 1908.95 5833.62 1562.97c-67.32,-292.97 -102,-593.09 -102,-893.76 0,-2182.65 1770.09,-3952.73 3952.92,-3952.73 2182.84,0 3952.92,1770.08 3952.92,3952.73 0,298.66 -33.75,596.94 -100.89,887.89l5301.25 1420.25 511.64 -1908.95 -5856.55 -1569.21 5339.04 -1430.34 -511.63 -1909.5 -5856.55 1569.76 3908.71 -3908.71 -1397.87 -1397.87 -4227.54 4228.09 1432.91 -5345.47 -0.56 0.37z"/>
    <path class="fil0" d="M14069.07 11585.07c-161.07,679.67 -500.45,1306.32 -983.1,1811.9l3840.65 3840.65 1397.87 -1397.86 -4255.24 -4254.69 -0.18 0zm-1022.17 1852.26c-486.14,497.14 -1096.1,857.8 -1766.23,1043.82l1397.87 5215.77 1908.95 -511.64 -1540.59 -5748.32 0 0.37zm-1837.59 1062.89c-320.67,82.19 -652.34,124.2 -983.83,124.2 -0.55,0 -2.02,0 -2.38,0 -365.43,0 -718.75,-49.53 -1054.64,-142.17l-1398.42 5220.72 1907.85 511.63 1530.87 -5714.19 0.55 -0.19zm-2108.91 -37.24c-660.23,-195.73 -1259,-561.89 -1734.68,-1059.77l-3850.55 3850.56 1397.86 1397.86 4187.74 -4188.83 -0.37 0.18zm-1766.78 -1093.71c-469.81,-502.28 -800.93,-1119.94 -958.88,-1789.16l-5318.87 1425.2 511.64 1908.95 5766.11 -1544.99z"/>
    <path class="fil1" d="M26577.6 13904.76l-1591.04 -7047.68 1676.52 0 1046.39 5734.19 117.4 0 1238.64 -5734.19 1954.26 0 1238.63 5734.19 128.05 0 1046.38 -5734.19 1591.22 0 -1612.5 7047.68 -2146.14 0 -1195.9 -5734.2 -96.31 0 -1195.89 5734.2 -2199.71 0zm11745.02 149.5c-462.47,0 -875.6,-64.02 -1238.64,-192.25 -338.46,-117.59 -648.48,-307.27 -907.51,-555.29 -255.91,-252.61 -453.3,-559.15 -576.76,-897.06 -128.23,-355.7 -192.25,-758.19 -192.25,-1206.71 0,-441.75 60.72,-846.98 181.61,-1217.36 116.86,-357.72 306.36,-688.84 555.11,-971.54 242.89,-277.74 546.31,-497.51 886.42,-640.59 348.92,-149.51 744.06,-224.18 1185.25,-224.18 427.07,0 808.09,71.36 1142.51,213.54 334.98,135.38 612.53,341.76 832.85,619.31 228.21,277.56 391.66,619.32 491.27,1025.11 106.77,398.44 146.03,857.61 117.41,1377.5l-4399.43 42.74 0 -843.49 3513.2 -32.1 -544.66 427.07c50.08,-377.17 25.32,-686.83 -74.66,-928.98 -99.43,-242.15 -245.64,-419.91 -437.89,-533.83 -181.8,-111.9 -391.66,-171.16 -605.38,-171.16 -4.58,0 -9.35,0.19 -13.75,0.19 -270.41,0 -508.7,71.36 -715.45,213.53 -206.19,142.17 -366.53,352.4 -480.45,629.96 -113.55,270.4 -170.79,598.03 -170.79,982.36 0,605.19 132.09,1049.86 395.15,1334.76 270.77,284.89 623.17,427.06 1057.21,427.06 199.4,0 366.89,-24.76 501.91,-74.66 142.72,-56.87 256.27,-128.23 341.76,-213.53 92.64,-85.49 164,-181.62 213.53,-288.38 57.24,-106.77 103.47,-213.53 138.87,-320.3l1334.76 288.38c-59.43,251.14 -157.03,493.1 -288.74,715.26 -120.9,206.19 -284.35,388.36 -491.28,544.65 -206.19,149.51 -455.31,263.62 -747.54,341.77 -284.35,85.48 -619.32,128.22 -1003.83,128.22l0.19 0zm7453.82 -1729.9c-313.14,0 -590.7,-60.72 -832.85,-181.61 -237.01,-123.28 -433.85,-312.78 -565.93,-544.84 -135.38,-235 -202.89,-526.68 -202.89,-875.6 0,-305.8 56.87,-562.63 170.79,-768.82 121.25,-206.2 295.53,-373.69 523.19,-501.92 228.21,-128.22 509.06,-234.99 843.49,-320.29 334.97,-85.49 715.44,-160.15 1142.51,-224.18 228.2,-35.4 412.57,-67.87 555.29,-96.12 149.51,-35.41 259.76,-88.79 330.94,-160.15 71.36,-78.15 106.77,-188.77 106.77,-330.94 0,-199.04 -71.36,-370.38 -213.54,-512.55 -142.17,-142.17 -366.52,-213.53 -672.7,-213.53 -206.19,0 -398.44,35.4 -576.57,106.76 -170.79,71.36 -320.3,178.13 -448.53,320.3 -121.26,142.17 -210.23,323.78 -266.92,544.66l-1356.04 -416.43c75.77,-271.5 199.23,-528.69 363.41,-758 163.64,-213.54 359.19,-391.66 587.22,-533.84 238.48,-154.09 503.19,-266.91 779.65,-331.3 301.03,-70.63 609.41,-106.77 918.88,-106.77 10.28,0 21.1,0 31.37,0 548.51,0 993,88.79 1334.76,266.92 348.92,170.79 608.68,441.74 779.47,811.57 170.79,363.04 256.28,832.85 256.28,1409.61l0 961.08c0,248.93 3.48,501.91 10.64,758.18 14.49,256.28 28.61,516.04 42.74,779.47l-2466.81 2498.74 -1355.68 0c-31,-199.6 -61.64,-406.34 -85.85,-608.5 -21.28,-234.99 -38.89,-469.81 -53.38,-704.8l-191.71 -0.19c-97.96,268.02 -243.06,518.06 -426.88,736.73 -184.91,220.87 -412.57,398.44 -683.34,533.83 -263.61,128.23 -565.93,192.25 -907.7,192.25l2529.92 -1729.72zm139.24 -843.49c135.38,0 270.4,-24.77 405.79,-74.67 142.17,-50.08 277.55,-117.4 405.78,-202.89 135.38,-92.27 256.28,-206.19 363.04,-341.76 114.11,-135.38 206.2,-288.38 277.56,-459.17l-21.28 -897.06 245.63 53.39c-128.23,92.27 -277.55,167.49 -448.52,224.17 -174.28,50.45 -353.87,90.62 -533.65,117.59 -178.13,28.62 -355.71,60.72 -533.83,96.13 -163.64,31 -325.44,78.33 -480.45,138.87 -127.31,50.99 -240.87,131.53 -331.31,234.62 -78.15,92.28 -117.4,224.18 -117.4,395.15 0,220.87 71.36,395.15 213.53,523.19 142.17,128.23 327.64,192.25 555.29,192.25l-0.18 0.19zm6043.48 -256.28c-626.1,0 -1089.12,-163.63 -1388.14,-491.27 -291.68,-334.97 -437.89,-864.95 -437.89,-1591.04l0 -2445.35 -811.57 0 21.28 -1206.71 566.12 0.18c220.87,0 384.5,-32.1 491.27,-96.13 106.77,-64.02 170.79,-181.61 192.25,-352.4l138.87 -800.93 875.41 0 0 1249.28 1420.07 0.18 0 1249.28 -1420.07 0 0 2338.58c0,256.28 60.72,441.74 181.61,555.29 121.26,114.11 306.36,170.79 555.3,170.79 135.38,0 263.61,-14.49 384.5,-42.74 117.96,-24.21 230.6,-71.36 330.76,-138.87l0 1430.89c-197.94,66.22 -402.12,112.82 -608.68,138.69 -162.72,19.62 -327.27,31.18 -491.45,32.28l0.36 0zm2653.02 -160.33l0 -4794.39 1548.29 0 0 1751.18c0,142.18 -6.79,291.68 -21.28,448.53 -7.7,160.89 -25.86,322.32 -53.57,480.63 -21.27,156.85 -46.04,317 -74.66,480.45 -21.28,163.64 -46.04,327.64 -74.66,491.27l234.81 -0.18c99.98,-363.04 224.17,-676.19 373.68,-939.62 156.85,-263.61 356.26,-465.95 598.04,-608.67 242.15,-149.51 548.51,-224.18 918.34,-224.18 655.27,0 1146.36,231.51 1473.63,694.17 327.64,455.68 491.27,1156.63 491.27,2103.59l-0.18 2957.72 -1548.3 0 0 -2722.91c0,-598.04 -88.79,-1039.23 -266.91,-1324.12 -170.79,-291.68 -430.55,-437.89 -779.47,-437.89 -284.34,0 -519.34,85.48 -704.8,256.27 -184.92,170.79 -323.79,402.3 -416.43,694.17 -92.27,284.89 -145.66,605.19 -160.15,961.08l0 2573.4 -1537.65 0 0 -2840.5zm10868.88 -2445.17c-462.47,0 -875.6,-64.02 -1238.64,-192.25 -338.46,-117.59 -649.22,-307.64 -907.88,-555.48 -255.54,-252.42 -452.75,-559.33 -576.39,-896.87 -128.23,-355.71 -192.25,-758.19 -192.25,-1206.72 0,-441.74 60.72,-846.97 181.61,-1217.35 116.85,-357.73 305.99,-688.66 554.93,-971.54 242.88,-277.92 546.49,-497.51 886.6,-640.78 348.91,-149.51 744.06,-224.17 1185.25,-224.17 427.06,0 808.08,71.36 1142.51,213.53 334.97,135.38 612.53,341.76 832.85,619.32 228.21,277.55 391.66,619.31 491.27,1025.1 106.77,398.45 146.02,857.62 117.41,1377.5l-4399.43 42.75 0 -843.49 3513.19 -32.11 -544.65 427.07c50.08,-377.17 25.31,-686.83 -74.66,-928.98 -99.43,-242.15 -245.64,-419.91 -437.89,-533.83 -181.8,-111.72 -391.66,-170.97 -605.2,-170.97 -4.58,0 -9.53,0.18 -14.12,0.18 -270.4,0 -508.7,71.36 -715.44,213.54 -206.2,142.17 -366.53,352.4 -480.45,629.95 -113.56,270.4 -170.79,598.04 -170.79,982.36 0,605.19 132.08,1049.87 395.14,1334.76 270.77,284.9 623.17,427.07 1057.21,427.07 199.41,0 366.89,-24.77 501.91,-74.66 142.72,-56.87 256.28,-128.23 341.76,-213.54 92.64,-85.48 164,-181.61 213.54,-288.38 57.23,-106.76 103.46,-213.53 138.86,-320.29l1334.77 288.37c-59.62,251.33 -157.22,493.29 -288.93,715.45 -120.89,206.19 -284.35,388.36 -491.27,544.65 -206.2,149.51 -455.32,263.62 -747.55,341.77 -284.34,85.48 -619.32,128.23 -1003.82,128.23l0.55 -0.19zm6129.7 -1879.41l0 1558.93 1270.74 0 10.64 1911.34 202.89 0.18c57.24,-477.15 153.36,-864.95 288.38,-1163.97 142.72,-299.02 338.28,-519.34 587.21,-662.06 249.49,-142.18 559.15,-213.54 928.98,-213.54 64.02,0 132.08,3.49 202.89,10.64 78.7,0 167.49,10.64 266.92,32.11l-64.02 1633.78c-111.91,-51.37 -230.96,-87.32 -352.59,-106.77 -112.64,-19.81 -227.47,-30.63 -341.76,-31.92 -277.56,0 -516.04,64.02 -715.45,192.25 -199.04,128.23 -363.04,313.15 -491.27,555.3 -120.89,234.99 -202.89,523.19 -245.63,864.95l0.36 2583.86 -1548.29 0 0 -7165.08zm10508.22 3000.64l0 -2883.24 2007.65 0 3192.71 4986.65 117.41 0.18 -96.13 -4986.65 1494.91 -0.18 0 7047.68 -1815.21 0 -3374.32 -5221.65 -117.41 0 -9493.39 5221.65 -1505.55 0 9589.33 -4164.44zm10746.15 149.33c-562.08,0 -1057.2,-110.25 -1484.27,-330.94 -424.68,-224.91 -773.96,-570.71 -1003.82,-992.82 -241.78,-441.74 -363.04,-989.7 -363.04,-1644.42 0,-655.27 121.26,-1199.38 363.04,-1633.78 249.49,-434.4 587.21,-758.19 1014.46,-971.72 434.4,-220.87 925.68,-330.94 1473.63,-330.94 562.64,0 1057.21,110.25 1484.27,330.94 432.02,218.3 786.44,565.57 1014.1,992.82 249.49,434.4 373.68,979.05 373.68,1633.78 0,662.06 -128.23,1213.5 -384.5,1655.06 -234.27,420.46 -592.54,760.02 -1024.92,971.72 -427.07,213.53 -914.49,320.3 -1462.99,320.3l0.36 0zm2541.48 -2434.53c277.56,0 509.07,-64.02 694.16,-192.25 192.26,-128.23 334.98,-320.3 427.07,-576.58 99.98,-263.61 149.51,-580.06 149.51,-950.44 0,-391.66 -53.38,-722.78 -160.15,-993 -99.43,-277.55 -248.94,-487.78 -448.53,-629.95 -199.04,-149.51 -451.83,-224.18 -758.19,-224.18 -263.06,0 -491.27,64.03 -683.34,192.26 -192.25,121.25 -337.91,313.14 -437.89,576.57 -99.42,256.28 -149.5,572.72 -149.5,950.44 0,605.19 121.25,1064.36 363.04,1377.5 242.15,313.15 576.57,469.81 1003.82,469.81l0 -0.18zm-7352.93 6449.64l-1388.14 -5605.97 1601.67 -0.18 790.11 4388.79 203.08 0 939.61 -4388.79 1847.32 0 971.72 4388.79 202.89 0 768.82 -4388.79 1569.76 0 -1398.97 5606.15 -2114.22 0 -875.6 -4356.69 -181.61 0 -832.85 4356.69 -2103.59 0z"/>
   </g>
  </g>
  <polygon class="fil2" points="538.37,799.66 20019.73,799.66 20019.73,20214.42 538.37,20214.6 "/>
 </g>
</svg>
